<?xml version="1.0"?>
<svg xmlns="http://www.w3.org/2000/svg" xmlns:xlink="http://www.w3.org/1999/xlink" version="1.1" id="Capa_1" x="0px" y="0px" viewBox="0 0 511.5 511.5" style="enable-background:new 0 0 511.5 511.5;" xml:space="preserve" width="512px" height="512px"><g><g>
	<path d="M477.661,141.256V87c0-8.284-6.716-15-15-15h-35.829v61.8l44.68,6.429C473.608,140.432,475.66,140.778,477.661,141.256z" data-original="#000000" class="active-path" data-old_color="#000000" fill="#FFFFFF"/>
	<path d="M331.161,71.528v48.506l65.5,9.425V15c0-8.284-6.716-15-15-15h-173c-8.284,0-15,6.716-15,15v11.527h92.5   C311.008,26.528,331.161,46.682,331.161,71.528z" data-original="#000000" class="active-path" data-old_color="#000000" fill="#FFFFFF"/>
	<path d="M216.148,133.74l28.134,99.139l107.458,2.264c-5.098-30.376-10.031-59.667-14.203-83.937L216.148,133.74z" data-original="#000000" class="active-path" data-old_color="#000000" fill="#FFFFFF"/>
	<path d="M368.705,155.692c3.83,22.497,8.581,50.77,13.501,80.101c34.614,0.746,67.516,1.491,96.095,2.232   c4.631-19.902,3.959-33.257,3.959-53.025c0-7.865-6.053-14.315-13.754-14.948L368.705,155.692z" data-original="#000000" class="active-path" data-old_color="#000000" fill="#FFFFFF"/>
	<path d="M468.044,267.666c-24.776-0.625-52.185-1.247-80.807-1.868c4.218,25.151,8.391,50.008,12.188,72.389   C429.662,323.026,453.773,298.16,468.044,267.666z" data-original="#000000" class="active-path" data-old_color="#000000" fill="#FFFFFF"/>
	<path d="M350.463,353.072c6.985-0.897,13.802-2.253,20.421-4.032c-4.147-24.468-9.109-54.052-14.113-83.895l-103.953-2.187   l28.107,99.047L350.463,353.072z" data-original="#000000" class="active-path" data-old_color="#000000" fill="#FFFFFF"/>
	<circle cx="423.664" cy="480.168" r="31.332" data-original="#000000" class="active-path" data-old_color="#000000" fill="#FFFFFF"/>
	<path d="M468.742,409.375h-270.31c-6.841,0-12.463-3.024-16.071-8.774c-7.056-11.242-0.074-25.826,12.969-27.488   c18.517-2.341,37.05-4.857,55.568-7.25l-29.395-103.584c-28.18-0.621-54.8-1.241-78.348-1.859l32.215,88.004   c-9.234,4.746-16.514,12.429-21.09,22.117c-15.246,32.278,8.68,68.834,44.152,68.834c90.736,0,181.228,0,270.31,0   c8.284,0,15-6.716,15-15S477.026,409.375,468.742,409.375z" data-original="#000000" class="active-path" data-old_color="#000000" fill="#FFFFFF"/>
	<circle cx="230.499" cy="480.168" r="31.332" data-original="#000000" class="active-path" data-old_color="#000000" fill="#FFFFFF"/>
	<path d="M183.208,128.801l-64.581-9.093l-21.205-15.355c0.117-0.486,0.227-0.976,0.324-1.472   c3.751-19.079-8.793-37.706-27.867-41.457C50.8,57.672,32.171,70.217,28.421,89.29c-3.751,19.08,8.793,37.707,27.867,41.457   c7.872,1.548,15.665,0.32,22.37-2.995l21.675,15.696l31.764,86.77c24.041,0.661,51.552,1.318,80.867,1.974   C210.173,222.358,183.079,130.121,183.208,128.801z" data-original="#000000" class="active-path" data-old_color="#000000" fill="#FFFFFF"/>
	<path d="M301.161,71.528c0-8.284-6.716-15-15-15h-137.5c-8.284,0-15,6.716-15,15v20.088l167.5,24.102V71.528z" data-original="#000000" class="active-path" data-old_color="#000000" fill="#FFFFFF"/>
</g></g> </svg>
